<svg xmlns="http://www.w3.org/2000/svg" xmlns:xlink="http://www.w3.org/1999/xlink" width="500" zoomAndPan="magnify" viewBox="0 0 375 374.999991" height="500" preserveAspectRatio="xMidYMid meet" version="1.0"><defs><g/><clipPath id="c8d356f184"><path d="M 25.238281 157.496094 L 143.738281 157.496094 L 143.738281 217.496094 L 25.238281 217.496094 Z M 25.238281 157.496094 " clip-rule="nonzero"/></clipPath></defs><g clip-path="url(#c8d356f184)"><path fill="#000000" d="M 56.050781 217.488281 L 115.445312 158.066406 L 144.054688 186.675781 L 113.246094 217.488281 L 108.757812 217.488281 L 109.261719 216.984375 C 108.414062 216.132812 107.539062 215.257812 106.6875 214.410156 C 105.839844 215.257812 104.964844 216.132812 104.113281 216.984375 L 104.617188 217.488281 L 65.6875 217.488281 L 66.296875 216.875 L 63.722656 214.300781 L 61.148438 216.875 L 61.757812 217.488281 Z M 82.085938 186.328125 L 74.363281 194.054688 L 71.789062 191.476562 L 69.214844 194.054688 L 66.640625 196.628906 L 64.066406 194.054688 L 61.492188 196.628906 L 58.917969 194.054688 L 56.34375 191.476562 L 53.769531 194.054688 L 51.195312 191.476562 L 53.769531 188.902344 L 56.34375 191.476562 L 58.917969 188.902344 L 56.34375 186.328125 L 58.917969 183.753906 L 61.492188 186.328125 L 64.066406 183.753906 L 58.917969 178.605469 L 66.640625 170.882812 L 71.789062 176.03125 L 69.214844 178.605469 L 71.789062 181.179688 L 74.363281 178.605469 L 76.9375 181.179688 L 71.789062 186.328125 L 69.214844 183.753906 L 66.640625 186.328125 L 64.066406 183.753906 L 66.640625 181.179688 L 64.066406 178.605469 L 66.640625 176.03125 L 61.492188 170.882812 L 64.066406 168.308594 L 61.519531 165.761719 L 58.945312 168.335938 L 53.796875 163.1875 L 56.371094 160.613281 L 58.945312 163.1875 L 53.796875 168.335938 L 51.222656 165.761719 L 53.796875 163.1875 L 51.222656 160.613281 L 45.808594 166.105469 L 43.234375 163.53125 L 40.660156 166.105469 L 43.234375 168.679688 L 38.085938 173.804688 L 35.511719 171.230469 L 32.9375 173.804688 L 35.511719 176.378906 L 25.238281 186.675781 L 27.8125 189.25 L 30.386719 186.675781 L 27.8125 184.101562 L 25.238281 186.675781 L 38.058594 199.492188 L 40.632812 196.917969 L 45.78125 202.066406 L 50.929688 196.917969 L 48.355469 194.34375 L 40.632812 202.066406 L 48.355469 209.789062 L 53.503906 204.640625 L 50.929688 202.066406 L 56.078125 196.917969 L 58.652344 199.492188 L 61.226562 196.917969 L 63.800781 199.492188 L 58.652344 204.640625 L 61.226562 207.214844 L 53.503906 214.9375 L 50.929688 212.363281 L 56.078125 207.214844 L 53.503906 204.640625 L 58.652344 199.492188 L 63.800781 204.640625 L 71.84375 196.601562 L 66.695312 191.453125 L 71.84375 186.304688 L 74.417969 188.878906 L 79.566406 183.730469 Z M 37.554688 158.648438 L 38.695312 159.789062 L 39.835938 158.648438 L 38.667969 157.507812 Z M 45.488281 158.648438 L 46.628906 159.789062 L 47.773438 158.648438 L 46.628906 157.507812 Z M 28.691406 168.308594 L 29.832031 167.167969 L 30.972656 168.308594 L 29.832031 169.449219 Z M 25.503906 175.449219 L 27.308594 173.644531 L 29.113281 175.449219 L 27.308594 177.253906 Z M 33.679688 165.070312 L 35.484375 163.265625 L 37.289062 165.070312 L 35.484375 166.875 Z M 43.234375 168.679688 L 45.808594 166.105469 L 48.382812 168.679688 L 45.808594 171.253906 Z M 38.085938 189.25 L 35.511719 186.675781 L 32.9375 189.25 L 35.511719 191.824219 L 32.9375 194.398438 L 30.363281 191.824219 L 32.9375 189.25 L 30.363281 186.675781 L 32.9375 184.101562 L 30.363281 181.527344 L 32.9375 178.953125 L 35.511719 181.527344 L 32.9375 184.101562 L 35.511719 186.675781 L 38.085938 184.101562 L 43.234375 189.25 L 40.660156 191.824219 L 43.234375 194.398438 L 40.660156 196.972656 L 38.085938 194.398438 L 40.660156 191.824219 Z M 50.957031 186.675781 L 53.53125 184.101562 L 48.382812 178.953125 L 50.957031 176.378906 L 48.382812 173.804688 L 50.957031 176.378906 L 53.53125 173.804688 L 56.105469 176.378906 L 58.679688 173.804688 L 56.105469 171.230469 L 53.53125 173.804688 L 50.957031 171.230469 L 45.808594 176.378906 L 43.234375 173.804688 L 40.660156 176.378906 L 43.234375 173.804688 L 40.660156 171.230469 L 35.511719 176.378906 L 38.085938 178.953125 L 40.660156 176.378906 L 38.085938 173.804688 L 43.234375 178.953125 L 45.808594 176.378906 L 48.382812 178.953125 L 45.808594 181.527344 L 48.382812 184.101562 L 45.808594 186.675781 L 48.382812 189.25 Z M 64.09375 178.605469 L 61.519531 181.179688 Z M 64.09375 188.902344 L 61.519531 186.328125 L 58.945312 188.902344 L 61.519531 191.476562 L 64.09375 194.054688 L 66.667969 191.476562 Z M 112.554688 165.46875 L 115.128906 168.042969 L 117.703125 165.46875 L 115.128906 162.894531 Z M 65.445312 212.578125 C 66.296875 213.425781 67.171875 214.300781 68.019531 215.152344 C 68.871094 214.300781 69.746094 213.425781 70.59375 212.578125 C 69.746094 211.726562 68.871094 210.851562 68.019531 210.003906 C 67.171875 210.851562 66.296875 211.703125 65.445312 212.578125 Z M 69.71875 208.277344 C 70.570312 209.128906 71.445312 210.003906 72.292969 210.851562 C 73.144531 210.003906 74.019531 209.128906 74.867188 208.277344 C 74.019531 207.429688 73.144531 206.554688 72.292969 205.703125 C 71.445312 206.578125 70.59375 207.429688 69.71875 208.277344 Z M 74.019531 204.003906 C 74.867188 204.855469 75.746094 205.730469 76.59375 206.578125 C 77.441406 205.730469 78.320312 204.855469 79.167969 204.003906 C 78.320312 203.15625 77.441406 202.28125 76.59375 201.429688 C 75.71875 202.28125 74.867188 203.15625 74.019531 204.003906 Z M 78.292969 199.730469 C 79.140625 200.582031 80.015625 201.457031 80.867188 202.304688 C 81.714844 201.457031 82.589844 200.582031 83.441406 199.730469 C 82.589844 198.882812 81.714844 198.007812 80.867188 197.15625 C 80.015625 198.007812 79.167969 198.855469 78.292969 199.730469 Z M 82.589844 195.433594 C 83.441406 196.28125 84.316406 197.15625 85.164062 198.007812 C 86.015625 197.15625 86.890625 196.28125 87.738281 195.433594 C 86.890625 194.582031 86.015625 193.707031 85.164062 192.859375 C 84.289062 193.734375 83.441406 194.582031 82.589844 195.433594 Z M 86.863281 191.160156 C 87.714844 192.007812 88.589844 192.886719 89.4375 193.734375 C 90.289062 192.886719 91.164062 192.007812 92.011719 191.160156 C 91.164062 190.3125 90.289062 189.433594 89.4375 188.585938 C 88.589844 189.433594 87.714844 190.3125 86.863281 191.160156 Z M 91.136719 186.886719 C 91.984375 187.738281 92.863281 188.613281 93.710938 189.460938 C 94.5625 188.613281 95.4375 187.738281 96.285156 186.886719 C 95.4375 186.039062 94.5625 185.160156 93.710938 184.3125 C 92.863281 185.160156 92.011719 186.011719 91.136719 186.886719 Z M 95.4375 182.585938 C 96.285156 183.4375 97.160156 184.3125 98.011719 185.160156 C 98.859375 184.3125 99.734375 183.4375 100.585938 182.585938 C 99.734375 181.738281 98.859375 180.863281 98.011719 180.011719 C 97.136719 180.890625 96.285156 181.738281 95.4375 182.585938 Z M 99.710938 178.316406 C 100.558594 179.164062 101.433594 180.039062 102.285156 180.890625 C 103.132812 180.039062 104.007812 179.164062 104.859375 178.316406 C 104.007812 177.464844 103.132812 176.589844 102.285156 175.742188 C 101.433594 176.589844 100.558594 177.464844 99.710938 178.316406 Z M 103.980469 174.015625 C 104.832031 174.863281 105.707031 175.742188 106.554688 176.589844 C 107.40625 175.742188 108.28125 174.863281 109.128906 174.015625 C 108.28125 173.167969 107.40625 172.289062 106.554688 171.441406 C 105.707031 172.316406 104.859375 173.167969 103.980469 174.015625 Z M 108.28125 169.742188 C 109.128906 170.59375 110.007812 171.46875 110.855469 172.316406 C 111.703125 171.46875 112.582031 170.59375 113.429688 169.742188 C 112.582031 168.894531 111.703125 168.019531 110.855469 167.167969 C 109.980469 168.042969 109.128906 168.894531 108.28125 169.742188 Z M 136.652344 189.566406 L 139.226562 186.992188 L 136.652344 184.417969 L 134.078125 186.992188 Z M 110.960938 215.257812 C 111.8125 214.410156 112.6875 213.53125 113.535156 212.683594 C 112.6875 211.835938 111.8125 210.957031 110.960938 210.109375 C 110.113281 210.957031 109.238281 211.835938 108.386719 212.683594 C 109.238281 213.53125 110.113281 214.410156 110.960938 215.257812 Z M 115.234375 210.984375 C 116.082031 210.136719 116.960938 209.257812 117.808594 208.410156 C 116.960938 207.5625 116.082031 206.683594 115.234375 205.835938 C 114.386719 206.683594 113.507812 207.5625 112.660156 208.410156 C 113.535156 209.257812 114.386719 210.109375 115.234375 210.984375 Z M 119.535156 206.683594 C 120.382812 205.835938 121.257812 204.960938 122.109375 204.109375 C 121.257812 203.261719 120.382812 202.386719 119.535156 201.535156 C 118.683594 202.386719 117.808594 203.261719 116.960938 204.109375 C 117.808594 204.988281 118.660156 205.835938 119.535156 206.683594 Z M 123.808594 202.414062 C 124.65625 201.5625 125.53125 200.6875 126.382812 199.839844 C 125.53125 198.988281 124.65625 198.113281 123.808594 197.265625 C 122.957031 198.113281 122.082031 198.988281 121.234375 199.839844 C 122.109375 200.6875 122.957031 201.5625 123.808594 202.414062 Z M 128.078125 198.140625 C 128.929688 197.289062 129.804688 196.414062 130.652344 195.566406 C 129.804688 194.714844 128.929688 193.839844 128.078125 192.992188 C 127.230469 193.839844 126.355469 194.714844 125.503906 195.566406 C 126.382812 196.414062 127.230469 197.265625 128.078125 198.140625 Z M 132.378906 193.839844 C 133.226562 192.992188 134.105469 192.117188 134.953125 191.265625 C 134.105469 190.417969 133.226562 189.542969 132.378906 188.691406 C 131.53125 189.542969 130.652344 190.417969 129.804688 191.265625 C 130.652344 192.140625 131.53125 192.992188 132.378906 193.839844 Z M 132.378906 193.839844 " fill-opacity="1" fill-rule="evenodd"/></g><g fill="#000000" fill-opacity="1"><g transform="translate(146.217783, 202.124987)"><g><path d="M 13.640625 -25.765625 C 13.640625 -25.890625 13.679688 -25.992188 13.765625 -26.078125 C 13.847656 -26.171875 13.953125 -26.21875 14.078125 -26.21875 L 18.46875 -26.21875 C 18.59375 -26.21875 18.695312 -26.171875 18.78125 -26.078125 C 18.863281 -25.992188 18.90625 -25.890625 18.90625 -25.765625 L 18.90625 -0.453125 C 18.90625 -0.328125 18.863281 -0.21875 18.78125 -0.125 C 18.695312 -0.0390625 18.59375 0 18.46875 0 L 14.078125 0 C 13.953125 0 13.847656 -0.0390625 13.765625 -0.125 C 13.679688 -0.21875 13.640625 -0.328125 13.640625 -0.453125 L 13.640625 -10.71875 C 13.640625 -10.84375 13.578125 -10.90625 13.453125 -10.90625 L 7.453125 -10.90625 C 7.328125 -10.90625 7.265625 -10.84375 7.265625 -10.71875 L 7.265625 -0.453125 C 7.265625 -0.328125 7.21875 -0.21875 7.125 -0.125 C 7.039062 -0.0390625 6.9375 0 6.8125 0 L 2.4375 0 C 2.3125 0 2.203125 -0.0390625 2.109375 -0.125 C 2.023438 -0.21875 1.984375 -0.328125 1.984375 -0.453125 L 1.984375 -25.765625 C 1.984375 -25.890625 2.023438 -25.992188 2.109375 -26.078125 C 2.203125 -26.171875 2.3125 -26.21875 2.4375 -26.21875 L 6.8125 -26.21875 C 6.9375 -26.21875 7.039062 -26.171875 7.125 -26.078125 C 7.21875 -25.992188 7.265625 -25.890625 7.265625 -25.765625 L 7.265625 -15.65625 C 7.265625 -15.53125 7.328125 -15.46875 7.453125 -15.46875 L 13.453125 -15.46875 C 13.578125 -15.46875 13.640625 -15.53125 13.640625 -15.65625 Z M 13.640625 -25.765625 "/></g></g></g><g fill="#000000" fill-opacity="1"><g transform="translate(166.96037, 202.124987)"><g><path d="M 10.375 0.296875 C 8.675781 0.296875 7.175781 -0.0507812 5.875 -0.75 C 4.582031 -1.445312 3.578125 -2.425781 2.859375 -3.6875 C 2.148438 -4.945312 1.796875 -6.398438 1.796875 -8.046875 L 1.796875 -25.765625 C 1.796875 -25.890625 1.835938 -25.992188 1.921875 -26.078125 C 2.015625 -26.171875 2.125 -26.21875 2.25 -26.21875 L 6.625 -26.21875 C 6.75 -26.21875 6.851562 -26.171875 6.9375 -26.078125 C 7.03125 -25.992188 7.078125 -25.890625 7.078125 -25.765625 L 7.078125 -7.796875 C 7.078125 -6.722656 7.375 -5.859375 7.96875 -5.203125 C 8.570312 -4.554688 9.375 -4.234375 10.375 -4.234375 C 11.375 -4.234375 12.171875 -4.554688 12.765625 -5.203125 C 13.367188 -5.859375 13.671875 -6.722656 13.671875 -7.796875 L 13.671875 -25.765625 C 13.671875 -25.890625 13.710938 -25.992188 13.796875 -26.078125 C 13.890625 -26.171875 14 -26.21875 14.125 -26.21875 L 18.5 -26.21875 C 18.625 -26.21875 18.726562 -26.171875 18.8125 -26.078125 C 18.90625 -25.992188 18.953125 -25.890625 18.953125 -25.765625 L 18.953125 -8.046875 C 18.953125 -6.398438 18.59375 -4.945312 17.875 -3.6875 C 17.164062 -2.425781 16.160156 -1.445312 14.859375 -0.75 C 13.566406 -0.0507812 12.070312 0.296875 10.375 0.296875 Z M 10.375 0.296875 "/></g></g></g><g fill="#000000" fill-opacity="1"><g transform="translate(187.702957, 202.124987)"><g><path d="M 14.875 -25.765625 C 14.875 -25.890625 14.914062 -25.992188 15 -26.078125 C 15.082031 -26.171875 15.1875 -26.21875 15.3125 -26.21875 L 19.65625 -26.21875 C 19.78125 -26.21875 19.882812 -26.171875 19.96875 -26.078125 C 20.0625 -25.992188 20.109375 -25.890625 20.109375 -25.765625 L 20.109375 -0.453125 C 20.109375 -0.328125 20.0625 -0.21875 19.96875 -0.125 C 19.882812 -0.0390625 19.78125 0 19.65625 0 L 15.09375 0 C 14.84375 0 14.664062 -0.113281 14.5625 -0.34375 L 7.421875 -15.578125 C 7.367188 -15.648438 7.316406 -15.6875 7.265625 -15.6875 C 7.210938 -15.6875 7.1875 -15.640625 7.1875 -15.546875 L 7.234375 -0.453125 C 7.234375 -0.328125 7.1875 -0.21875 7.09375 -0.125 C 7.007812 -0.0390625 6.90625 0 6.78125 0 L 2.4375 0 C 2.3125 0 2.203125 -0.0390625 2.109375 -0.125 C 2.023438 -0.21875 1.984375 -0.328125 1.984375 -0.453125 L 1.984375 -25.765625 C 1.984375 -25.890625 2.023438 -25.992188 2.109375 -26.078125 C 2.203125 -26.171875 2.3125 -26.21875 2.4375 -26.21875 L 6.96875 -26.21875 C 7.21875 -26.21875 7.390625 -26.101562 7.484375 -25.875 L 14.640625 -10.640625 C 14.691406 -10.566406 14.742188 -10.53125 14.796875 -10.53125 C 14.847656 -10.53125 14.875 -10.578125 14.875 -10.671875 Z M 14.875 -25.765625 "/></g></g></g><g fill="#000000" fill-opacity="1"><g transform="translate(209.793439, 202.124987)"><g><path d="M 2.4375 0 C 2.3125 0 2.203125 -0.0390625 2.109375 -0.125 C 2.023438 -0.21875 1.984375 -0.328125 1.984375 -0.453125 L 1.984375 -25.765625 C 1.984375 -25.890625 2.023438 -25.992188 2.109375 -26.078125 C 2.203125 -26.171875 2.3125 -26.21875 2.4375 -26.21875 L 10.484375 -26.21875 C 12.160156 -26.21875 13.640625 -25.90625 14.921875 -25.28125 C 16.210938 -24.65625 17.207031 -23.769531 17.90625 -22.625 C 18.601562 -21.476562 18.953125 -20.140625 18.953125 -18.609375 L 18.953125 -7.609375 C 18.953125 -6.078125 18.601562 -4.738281 17.90625 -3.59375 C 17.207031 -2.445312 16.210938 -1.5625 14.921875 -0.9375 C 13.640625 -0.3125 12.160156 0 10.484375 0 Z M 7.265625 -4.71875 C 7.265625 -4.59375 7.328125 -4.53125 7.453125 -4.53125 L 10.53125 -4.5625 C 11.445312 -4.5625 12.191406 -4.890625 12.765625 -5.546875 C 13.347656 -6.210938 13.648438 -7.097656 13.671875 -8.203125 L 13.671875 -18.015625 C 13.671875 -19.140625 13.382812 -20.03125 12.8125 -20.6875 C 12.238281 -21.351562 11.476562 -21.6875 10.53125 -21.6875 L 7.453125 -21.6875 C 7.328125 -21.6875 7.265625 -21.625 7.265625 -21.5 Z M 7.265625 -4.71875 "/></g></g></g><g fill="#000000" fill-opacity="1"><g transform="translate(230.273933, 202.124987)"><g><path d="M 10.21875 0.34375 C 8.5 0.34375 6.984375 -0.00390625 5.671875 -0.703125 C 4.359375 -1.410156 3.335938 -2.398438 2.609375 -3.671875 C 1.890625 -4.941406 1.53125 -6.425781 1.53125 -8.125 L 1.53125 -18.09375 C 1.53125 -19.757812 1.890625 -21.226562 2.609375 -22.5 C 3.335938 -23.78125 4.359375 -24.769531 5.671875 -25.46875 C 6.984375 -26.164062 8.5 -26.515625 10.21875 -26.515625 C 11.945312 -26.515625 13.472656 -26.164062 14.796875 -25.46875 C 16.117188 -24.769531 17.140625 -23.78125 17.859375 -22.5 C 18.585938 -21.226562 18.953125 -19.757812 18.953125 -18.09375 L 18.953125 -8.125 C 18.953125 -6.425781 18.585938 -4.941406 17.859375 -3.671875 C 17.140625 -2.398438 16.117188 -1.410156 14.796875 -0.703125 C 13.472656 -0.00390625 11.945312 0.34375 10.21875 0.34375 Z M 10.21875 -4.1875 C 11.269531 -4.1875 12.109375 -4.53125 12.734375 -5.21875 C 13.359375 -5.90625 13.671875 -6.800781 13.671875 -7.90625 L 13.671875 -18.234375 C 13.671875 -19.359375 13.359375 -20.265625 12.734375 -20.953125 C 12.109375 -21.640625 11.269531 -21.984375 10.21875 -21.984375 C 9.195312 -21.984375 8.375 -21.640625 7.75 -20.953125 C 7.125 -20.265625 6.8125 -19.359375 6.8125 -18.234375 L 6.8125 -7.90625 C 6.8125 -6.800781 7.125 -5.90625 7.75 -5.21875 C 8.375 -4.53125 9.195312 -4.1875 10.21875 -4.1875 Z M 10.21875 -4.1875 "/></g></g></g><g fill="#000000" fill-opacity="1"><g transform="translate(250.754427, 202.124987)"><g/></g></g><g fill="#000000" fill-opacity="1"><g transform="translate(258.242731, 202.124987)"><g><path d="M 17.90625 -22.140625 C 17.90625 -22.015625 17.859375 -21.90625 17.765625 -21.8125 C 17.679688 -21.726562 17.578125 -21.6875 17.453125 -21.6875 L 7.453125 -21.6875 C 7.328125 -21.6875 7.265625 -21.625 7.265625 -21.5 L 7.265625 -15.65625 C 7.265625 -15.53125 7.328125 -15.46875 7.453125 -15.46875 L 13.671875 -15.46875 C 13.796875 -15.46875 13.898438 -15.421875 13.984375 -15.328125 C 14.078125 -15.242188 14.125 -15.140625 14.125 -15.015625 L 14.125 -11.390625 C 14.125 -11.265625 14.078125 -11.15625 13.984375 -11.0625 C 13.898438 -10.976562 13.796875 -10.9375 13.671875 -10.9375 L 7.453125 -10.9375 C 7.328125 -10.9375 7.265625 -10.875 7.265625 -10.75 L 7.265625 -0.453125 C 7.265625 -0.328125 7.21875 -0.21875 7.125 -0.125 C 7.039062 -0.0390625 6.9375 0 6.8125 0 L 2.4375 0 C 2.3125 0 2.203125 -0.0390625 2.109375 -0.125 C 2.023438 -0.21875 1.984375 -0.328125 1.984375 -0.453125 L 1.984375 -25.765625 C 1.984375 -25.890625 2.023438 -25.992188 2.109375 -26.078125 C 2.203125 -26.171875 2.3125 -26.21875 2.4375 -26.21875 L 17.453125 -26.21875 C 17.578125 -26.21875 17.679688 -26.171875 17.765625 -26.078125 C 17.859375 -25.992188 17.90625 -25.890625 17.90625 -25.765625 Z M 17.90625 -22.140625 "/></g></g></g><g fill="#000000" fill-opacity="1"><g transform="translate(276.589062, 202.124987)"><g><path d="M 2.4375 0 C 2.3125 0 2.203125 -0.0390625 2.109375 -0.125 C 2.023438 -0.21875 1.984375 -0.328125 1.984375 -0.453125 L 1.984375 -25.765625 C 1.984375 -25.890625 2.023438 -25.992188 2.109375 -26.078125 C 2.203125 -26.171875 2.3125 -26.21875 2.4375 -26.21875 L 6.8125 -26.21875 C 6.9375 -26.21875 7.039062 -26.171875 7.125 -26.078125 C 7.21875 -25.992188 7.265625 -25.890625 7.265625 -25.765625 L 7.265625 -0.453125 C 7.265625 -0.328125 7.21875 -0.21875 7.125 -0.125 C 7.039062 -0.0390625 6.9375 0 6.8125 0 Z M 2.4375 0 "/></g></g></g><g fill="#000000" fill-opacity="1"><g transform="translate(285.799667, 202.124987)"><g><path d="M 2.4375 0 C 2.3125 0 2.203125 -0.0390625 2.109375 -0.125 C 2.023438 -0.21875 1.984375 -0.328125 1.984375 -0.453125 L 1.984375 -25.765625 C 1.984375 -25.890625 2.023438 -25.992188 2.109375 -26.078125 C 2.203125 -26.171875 2.3125 -26.21875 2.4375 -26.21875 L 6.8125 -26.21875 C 6.9375 -26.21875 7.039062 -26.171875 7.125 -26.078125 C 7.21875 -25.992188 7.265625 -25.890625 7.265625 -25.765625 L 7.265625 -4.71875 C 7.265625 -4.59375 7.328125 -4.53125 7.453125 -4.53125 L 17.484375 -4.53125 C 17.609375 -4.53125 17.710938 -4.484375 17.796875 -4.390625 C 17.890625 -4.304688 17.9375 -4.203125 17.9375 -4.078125 L 17.9375 -0.453125 C 17.9375 -0.328125 17.890625 -0.21875 17.796875 -0.125 C 17.710938 -0.0390625 17.609375 0 17.484375 0 Z M 2.4375 0 "/></g></g></g><g fill="#000000" fill-opacity="1"><g transform="translate(304.48297, 202.124987)"><g><path d="M 16.40625 -25.921875 C 16.5 -26.117188 16.671875 -26.21875 16.921875 -26.21875 L 21.265625 -26.21875 C 21.390625 -26.21875 21.492188 -26.171875 21.578125 -26.078125 C 21.671875 -25.992188 21.71875 -25.890625 21.71875 -25.765625 L 21.71875 -0.453125 C 21.71875 -0.328125 21.671875 -0.21875 21.578125 -0.125 C 21.492188 -0.0390625 21.390625 0 21.265625 0 L 16.890625 0 C 16.765625 0 16.65625 -0.0390625 16.5625 -0.125 C 16.476562 -0.21875 16.4375 -0.328125 16.4375 -0.453125 L 16.4375 -17.078125 C 16.4375 -17.179688 16.410156 -17.238281 16.359375 -17.25 C 16.316406 -17.257812 16.269531 -17.226562 16.21875 -17.15625 L 12.765625 -11.453125 C 12.671875 -11.253906 12.5 -11.15625 12.25 -11.15625 L 11.390625 -11.15625 C 11.140625 -11.15625 10.960938 -11.253906 10.859375 -11.453125 L 7.421875 -17.15625 C 7.367188 -17.226562 7.316406 -17.257812 7.265625 -17.25 C 7.210938 -17.238281 7.1875 -17.179688 7.1875 -17.078125 L 7.1875 -0.453125 C 7.1875 -0.328125 7.140625 -0.21875 7.046875 -0.125 C 6.960938 -0.0390625 6.859375 0 6.734375 0 L 2.359375 0 C 2.234375 0 2.125 -0.0390625 2.03125 -0.125 C 1.945312 -0.21875 1.90625 -0.328125 1.90625 -0.453125 L 1.90625 -25.765625 C 1.90625 -25.890625 1.945312 -25.992188 2.03125 -26.078125 C 2.125 -26.171875 2.234375 -26.21875 2.359375 -26.21875 L 6.703125 -26.21875 C 6.953125 -26.21875 7.128906 -26.117188 7.234375 -25.921875 L 11.71875 -18.546875 C 11.789062 -18.390625 11.867188 -18.390625 11.953125 -18.546875 Z M 16.40625 -25.921875 "/></g></g></g><g fill="#000000" fill-opacity="1"><g transform="translate(328.108552, 202.124987)"><g><path d="M 9.84375 0.296875 C 8.125 0.296875 6.613281 -0.00390625 5.3125 -0.609375 C 4.019531 -1.222656 3.015625 -2.085938 2.296875 -3.203125 C 1.585938 -4.316406 1.234375 -5.597656 1.234375 -7.046875 L 1.234375 -8.015625 C 1.234375 -8.140625 1.273438 -8.242188 1.359375 -8.328125 C 1.453125 -8.421875 1.5625 -8.46875 1.6875 -8.46875 L 6 -8.46875 C 6.125 -8.46875 6.226562 -8.421875 6.3125 -8.328125 C 6.394531 -8.242188 6.4375 -8.140625 6.4375 -8.015625 L 6.4375 -7.296875 C 6.4375 -6.429688 6.757812 -5.703125 7.40625 -5.109375 C 8.0625 -4.523438 8.9375 -4.234375 10.03125 -4.234375 C 11.007812 -4.234375 11.753906 -4.484375 12.265625 -4.984375 C 12.773438 -5.484375 13.03125 -6.117188 13.03125 -6.890625 C 13.03125 -7.460938 12.867188 -7.953125 12.546875 -8.359375 C 12.222656 -8.773438 11.765625 -9.164062 11.171875 -9.53125 C 10.585938 -9.894531 9.6875 -10.390625 8.46875 -11.015625 C 6.96875 -11.765625 5.742188 -12.460938 4.796875 -13.109375 C 3.847656 -13.753906 3.035156 -14.585938 2.359375 -15.609375 C 1.679688 -16.640625 1.34375 -17.878906 1.34375 -19.328125 C 1.34375 -20.773438 1.6875 -22.039062 2.375 -23.125 C 3.0625 -24.207031 4.03125 -25.039062 5.28125 -25.625 C 6.53125 -26.21875 7.953125 -26.515625 9.546875 -26.515625 C 11.222656 -26.515625 12.707031 -26.195312 14 -25.5625 C 15.300781 -24.925781 16.3125 -24.03125 17.03125 -22.875 C 17.757812 -21.726562 18.125 -20.40625 18.125 -18.90625 L 18.125 -18.171875 C 18.125 -18.046875 18.078125 -17.9375 17.984375 -17.84375 C 17.898438 -17.757812 17.796875 -17.71875 17.671875 -17.71875 L 13.375 -17.71875 C 13.25 -17.71875 13.140625 -17.757812 13.046875 -17.84375 C 12.960938 -17.9375 12.921875 -18.046875 12.921875 -18.171875 L 12.921875 -18.84375 C 12.921875 -19.738281 12.609375 -20.484375 11.984375 -21.078125 C 11.359375 -21.679688 10.507812 -21.984375 9.4375 -21.984375 C 8.539062 -21.984375 7.832031 -21.75 7.3125 -21.28125 C 6.800781 -20.820312 6.546875 -20.179688 6.546875 -19.359375 C 6.546875 -18.785156 6.695312 -18.285156 7 -17.859375 C 7.300781 -17.441406 7.765625 -17.035156 8.390625 -16.640625 C 9.015625 -16.253906 9.960938 -15.75 11.234375 -15.125 L 12.015625 -14.6875 C 13.460938 -13.882812 14.59375 -13.1875 15.40625 -12.59375 C 16.21875 -12.007812 16.898438 -11.269531 17.453125 -10.375 C 18.003906 -9.476562 18.28125 -8.390625 18.28125 -7.109375 C 18.28125 -4.835938 17.507812 -3.035156 15.96875 -1.703125 C 14.4375 -0.367188 12.394531 0.296875 9.84375 0.296875 Z M 9.84375 0.296875 "/></g></g></g></svg>